<svg width="59" height="24" viewBox="0 0 59 24" fill="none" xmlns="http://www.w3.org/2000/svg">
<path d="M12.1609 11.7715C7.85321 14.3169 3.41494 14.9044 1 15.4918V23.324H58.1754V1.0021C56.139 0.845457 53.8677 2.56816 51.9096 4.52661C49.9515 6.48506 41.5319 17.6453 30.3709 11.7715C19.21 5.8977 16.4687 9.2261 12.1609 11.7715Z" fill="url(#paint0_linear_20533_163850)"/>
<path d="M1 15.4997C3.41494 14.9122 7.85321 14.3248 12.1609 11.7793C16.4687 9.23392 19.21 5.90551 30.3709 11.7793C41.5319 17.6532 49.9515 6.49287 51.9096 4.53442C53.8677 2.57598 56.139 0.85327 58.1754 1.00991" stroke="#4FC3F7" stroke-width="0.783224"/>
<defs>
<linearGradient id="paint0_linear_20533_163850" x1="29.5877" y1="0.992187" x2="29.5877" y2="23.324" gradientUnits="userSpaceOnUse">
<stop stop-color="#4FC3F7" stop-opacity="0.3"/>
<stop offset="1" stop-color="#4FC3F7" stop-opacity="0"/>
</linearGradient>
</defs>
</svg>
